<svg width="71" height="66" viewBox="0 0 71 66" fill="none" xmlns="http://www.w3.org/2000/svg">
<path d="M26.3071 58.2272H12.7754V43.8447" stroke="white" stroke-width="2" stroke-miterlimit="10" stroke-linecap="round"/>
<path d="M27.4321 59.6023C27.4321 59.6023 24.605 56.6048 23.5345 52.9199C22.0798 47.9424 21.3936 43.8174 17.3862 39.7749" stroke="white" stroke-width="2" stroke-miterlimit="10" stroke-linecap="round"/>
<path d="M38.9873 57.3198C43.0221 61.6648 43.9004 62.9573 45.3826 62.6823C47.0569 62.3523 47.249 60.5098 47.249 58.9423" stroke="white" stroke-width="2" stroke-miterlimit="10" stroke-linecap="round"/>
<path d="M33.498 58.7773C37.5328 63.1223 38.4112 64.4148 39.8933 64.1398C41.5677 63.8098 41.7598 61.9673 41.7598 60.3998" stroke="white" stroke-width="2" stroke-miterlimit="10" stroke-linecap="round"/>
<path d="M27.4321 59.6025C31.4669 63.9475 32.3453 65.24 33.8274 64.965C35.5017 64.635 35.6939 62.7925 35.6939 61.225" stroke="white" stroke-width="2" stroke-miterlimit="10" stroke-linecap="round"/>
<path d="M53.3701 58.2273H69.921V1H16.6177C14.5042 1 12.775 2.73249 12.775 4.84999C12.775 5.86748 13.1868 6.85748 13.9004 7.57248L30.4239 24.1274C31.1375 24.8424 31.1375 25.9699 30.4239 26.6849L16.3432 40.7924C15.6296 41.5073 14.5042 41.5073 13.7906 40.7924L1 27.9774" stroke="white" stroke-width="2" stroke-miterlimit="10" stroke-linecap="round"/>
<path d="M29.2437 27.895L33.4157 32.075C39.8933 38.565 43.5988 38.5925 48.6491 39.0875C48.6491 39.0875 52.4369 39.665 54.77 42.36C56.7736 44.6975 53.9191 48.0524 51.339 46.4024C51.092 46.2374 50.8449 46.0724 50.5979 45.8524C49.4177 44.8625 47.8257 44.4775 46.3435 44.9725C44.4496 45.605 43.9007 47.9974 45.3005 49.3999L45.9044 50.0049L52.6565 56.7699C53.6172 57.7324 53.6172 59.3274 52.6565 60.2899C51.6958 61.2524 50.1039 61.2524 49.1432 60.2899L43.8458 54.9824" stroke="white" stroke-width="2" stroke-miterlimit="10" stroke-linecap="round"/>
<path d="M62.7123 20.0981C62.7123 14.4919 58.3839 8.90625 50.5104 8.90625C42.637 8.90625 38.3086 14.4919 38.3086 20.0981" stroke="white" stroke-width="2" stroke-miterlimit="10" stroke-linecap="round"/>
<path d="M36 22.6743H65" stroke="white" stroke-width="2" stroke-miterlimit="10" stroke-linecap="round"/>
<path d="M38.3086 22.6743C38.3086 24.7561 39.9781 26.8996 42.0598 26.8996H50.5104H58.961C61.0428 26.8996 62.7123 24.7561 62.7123 22.6743" stroke="white" stroke-width="2" stroke-miterlimit="10" stroke-linecap="round"/>
<path d="M50.5103 8.92679V6" stroke="white" stroke-width="2" stroke-miterlimit="10" stroke-linecap="round"/>
</svg>
